# xmcd
#
# Track frame offsets: 
#        150
#        10801
#        24957
#        40245
#        54391
#        68252
#        84048
#        97662
#        109345
#        120589
#        136620
#        149298
#        160929
#        175868
#
# Disc length: 2533 seconds
#
# Revision: 0
# Processed by: cddbd v1.5.2PL0 Copyright (c) Steve Scherf et al.
# Submitted via: ExactAudioCopy v0.99pb5
#
DISCID=9a09e30e
DTITLE=Henk Wijngaard - Country On The Road
DYEAR=1994
DGENRE=Country
TTITLE0=Movin' On
TTITLE1=With The Bears On My Tail
TTITLE2=Drivin' My Life Away
TTITLE3=A Hundred Kilo
TTITLE4=Diesel Smoke, Dangerous Curves
TTITLE5=Willie The Wino
TTITLE6=The Longer The Distance
TTITLE7=Blue Moon Betty
TTITLE8=Drag 'em Off The Interstate
TTITLE9=Hey Suzie
TTITLE10=White Line Fever
TTITLE11=Up In My Castle
TTITLE12=Six Days On The Road
TTITLE13=I'd Be Better Off Alone
EXTD=
EXTT0=
EXTT1=
EXTT2=
EXTT3=
EXTT4=
EXTT5=
EXTT6=
EXTT7=
EXTT8=
EXTT9=
EXTT10=
EXTT11=
EXTT12=
EXTT13=
PLAYORDER=
